<svg height="32" viewBox="0 0 32 32" fill="white" width="32" xmlns="http://www.w3.org/2000/svg"><path d="m31.453 4.625c-.688-1.891-2.177-3.375-4.068-4.063-1.745-.563-3.333-.563-6.557-.563h-9.682c-3.198 0-4.813 0-6.531.531-1.896.693-3.385 2.188-4.068 4.083-.547 1.734-.547 3.333-.547 6.531v9.693c0 3.214 0 4.802.531 6.536.688 1.891 2.177 3.375 4.068 4.063 1.734.547 3.333.547 6.536.547h9.703c3.214 0 4.813 0 6.536-.531 1.896-.688 3.391-2.182 4.078-4.078.547-1.734.547-3.333.547-6.536v-9.667c0-3.214 0-4.813-.547-6.547zm-8.224 6.177-1.245 1.24c-.25.229-.635.234-.891.01-1.203-1.01-2.724-1.568-4.292-1.573-1.297 0-2.589.427-2.589 1.615 0 1.198 1.385 1.599 2.984 2.198 2.802.938 5.12 2.109 5.12 4.854 0 2.99-2.318 5.042-6.104 5.266l-.349 1.604c-.063.302-.328.516-.635.516h-2.391l-.12-.01c-.354-.078-.578-.432-.505-.786l.375-1.693c-1.438-.359-2.76-1.083-3.844-2.094v-.016c-.25-.25-.25-.656 0-.906l1.333-1.292c.255-.234.646-.234.896 0 1.214 1.146 2.839 1.786 4.521 1.76 1.734 0 2.891-.734 2.891-1.896s-1.172-1.464-3.385-2.292c-2.349-.839-4.573-2.026-4.573-4.802 0-3.224 2.677-4.797 5.854-4.943l.333-1.641c.063-.302.333-.516.641-.51h2.37l.135.016c.344.078.573.411.495.76l-.359 1.828c1.198.396 2.333 1.026 3.302 1.849l.031.031c.25.266.25.667 0 .906z"/></svg>