<svg fill="none" height="24" viewBox="0 0 24 24" width="24" xmlns="http://www.w3.org/2000/svg"><g fill="#ff004f"><path d="m22.459 6.84582v3.65898c-.1967 0-.4328.0394-.6688.0394-1.7705 0-3.423-.66888-4.682-1.73117v7.79017c0 1.5738-.5115 3.0688-1.4164 4.2492-1.259 1.6918-3.3049 2.8328-5.6262 2.8328-2.51805 0-4.72132-1.3377-5.941-3.305 1.25902 1.1804 2.95082 1.9279 4.8 1.9279 2.282 0 4.3279-1.1016 5.5869-2.8328.8656-1.1803 1.4164-2.636 1.4164-4.2492v-7.82946c1.259 1.10164 2.8721 1.73114 4.6819 1.73114.2361 0 .4328 0 .6689-.03934v-2.36066c.3541.07869.6689.11804 1.023.11804z"/><path d="m11.0492 9.56058v4.05242c-.2754-.0786-.5902-.118-.8656-.118-1.73114 0-3.14754 1.4557-3.14754 3.2262 0 .3935.07869.7476.19673 1.1017-.78689-.5902-1.33771-1.5344-1.33771-2.5967 0-1.7705 1.41639-3.2263 3.14754-3.2263.31476 0 .59017.0394.86558.1181v-2.59676h.2361c.3147 0 .6295 0 .9049.03934z"/><path d="m17.6984 3.93442c-.7082-.6295-1.2197-1.49508-1.4951-2.4h.9442v.55082c.0787.62951.2754 1.25902.5509 1.84918z"/></g><path d="m21.318 6.76721v2.36066c-.1967.03934-.4327.03934-.6688.03934-1.7705 0-3.423-.66885-4.682-1.73115v7.79014c0 1.5738-.5114 3.0689-1.4164 4.2492-1.2983 1.7312-3.3049 2.8328-5.58685 2.8328-1.84918 0-3.54098-.7475-4.8-1.9279-.66885-1.1016-1.0623-2.3606-1.0623-3.7377 0-3.8164 3.02951-6.92457 6.80656-7.0426v2.5967c-.27541-.0787-.59016-.118-.86557-.118-1.73115 0-3.14754 1.4557-3.14754 3.2262 0 1.0623.51147 2.0459 1.3377 2.5967.43279 1.2197 1.61312 2.1246 2.9508 2.1246 1.7312 0 3.1476-1.4557 3.1476-3.2262v-15.26558h2.8721c.2754.94427.7869 1.7705 1.4951 2.4.7082 1.4164 2.0459 2.47869 3.6196 2.83279z" fill="#000"/><path d="m9.9082 8.18367v1.3377c-3.77705.11804-6.80656 3.22623-6.80656 7.04263 0 1.377.39344 2.6361 1.06229 3.7377-1.3377-1.2984-2.16393-3.1082-2.16393-5.1541 0-3.8951 3.14754-7.04262 7.00328-7.04262.31475 0 .62951.03934.90492.07869z" fill="#00f7ef"/><path d="m16.2033 1.53443h-2.8722v15.18687c0 1.7705-1.4163 3.2262-3.1475 3.2262-1.37704 0-2.51803-.8655-2.95081-2.1245.51147.354 1.14098.5901 1.80983.5901 1.73118 0 3.14758-1.4164 3.14758-3.1869v-15.2262h3.8164v.0786885c0 .1573775 0 .3147545.0393.4721315 0 .314754.0787.66885.1574.98361z" fill="#00f7ef"/><path d="m21.318 5.31138v1.41639c-1.5737-.31476-2.9114-1.37705-3.659-2.79344.9836.90491 2.2426 1.41639 3.659 1.37705z" fill="#00f7ef"/></svg>